<?xml version="1.0" standalone="no"?>
<!DOCTYPE svg PUBLIC "-//W3C//DTD SVG 20010904//EN"
 "http://www.w3.org/TR/2001/REC-SVG-20010904/DTD/svg10.dtd">
<svg version="1.0" xmlns="http://www.w3.org/2000/svg"
 width="180.000000pt" height="180.000000pt" viewBox="0 0 180.000000 180.000000"
 preserveAspectRatio="xMidYMid meet">
<metadata>
Created by potrace 1.11, written by Peter Selinger 2001-2013
</metadata>
<g transform="translate(0.000000,180.000000) scale(0.100000,-0.100000)"
fill="#000000" stroke="none">
<path d="M133 1360 c0 -471 8 -529 93 -708 111 -231 349 -453 619 -577 l58
-26 66 32 c257 126 464 315 586 533 26 46 74 164 80 197 2 9 8 34 14 54 6 21
8 42 5 46 -2 4 -1 10 4 13 5 3 9 188 10 411 1 312 -1 405 -11 406 -7 1 -352 2
-768 3 l-757 1 1 -385z"/>
</g>
</svg>
